<?xml version="1.0" encoding="utf-8"?>
<!-- Generator: Adobe Illustrator 21.0.0, SVG Export Plug-In . SVG Version: 6.00 Build 0)  -->
<svg version="1.1" id="Layer_1" xmlns="http://www.w3.org/2000/svg" xmlns:xlink="http://www.w3.org/1999/xlink" x="0px" y="0px"
	 viewBox="0 0 200 80" style="enable-background:new 0 0 200 80;" xml:space="preserve">
<style type="text/css">
	.st0{fill:#FFFFFF;}
</style>
<g>
	<g>
		<path class="st0" d="M169,2.3H30.8C16.2,2.3,6.4,12.8,6.4,25.4c0,12.6,9.8,23,24.5,23h138c14.7,0,24.5-10.4,24.5-23
			C193.4,12.8,183.6,2.3,169,2.3z M169,42.8H31c-11.6,0-18.7-7.8-18.7-17.4C12.3,15.8,19.4,8,31,8h138c11.6,0,18.7,7.8,18.7,17.4
			C187.7,35,180.7,42.8,169,42.8z"/>
		<polygon class="st0" points="25,14.5 31.8,14.5 41.1,29.6 41.1,14.5 47.8,14.5 47.8,36.2 41.1,36.2 31.7,21 31.7,36.2 25,36.2 		
			"/>
		<polygon class="st0" points="84.3,16.7 90.8,16.7 90.8,19.6 94.4,19.6 94.4,21.8 90.8,21.8 90.8,36.2 84.3,36.2 84.3,21.8 
			80.8,21.8 80.8,19.6 84.3,19.6 		"/>
		<polygon class="st0" points="51.6,21.7 58.1,21.7 58.1,36.2 51.6,36.2 		"/>
		<polygon class="st0" points="51.6,14.5 58.1,14.5 58.1,18.9 51.6,18.9 		"/>
		<path class="st0" d="M168.5,28.8c0,0,0,2.2,0,3.1c0,2.3-1.4,3.3-2.7,3.3s-2.7-1-2.7-3.3c0-0.9,0-3.1,0-3.1s0-2.1,0-3
			c0-2.3,1.4-3.2,2.7-3.2s2.7,0.9,2.7,3.2C168.5,26.6,168.5,28.3,168.5,28.8L168.5,28.8L168.5,28.8L168.5,28.8z M165.9,20.7
			c-5.3,0-9.5,3.6-9.5,8.1s4.3,8.1,9.5,8.1c5.3,0,9.5-3.6,9.5-8.1C175.4,24.4,171.2,20.7,165.9,20.7L165.9,20.7z"/>
		<path class="st0" d="M147.8,14.5h6.4v21.7h-6.4c0,0,0-0.7,0-0.8c-2.5,1.6-5.3,1.6-7.5,0.5c-0.6-0.3-4.5-2.1-4.5-7.2
			c0-3.8,3.6-8,8.3-7.6c1.5,0.1,2.6,0.7,3.7,1.3C147.8,19.1,147.8,14.5,147.8,14.5L147.8,14.5L147.8,14.5z M147.8,28.9
			c0,0,0-1.8,0-2.6c0-2.2-1.5-2.8-2.6-2.8c-1,0-2.6,0.6-2.6,2.8c0,0.7,0,2.6,0,2.6s0,1.8,0,2.6c0,2.2,1.5,2.8,2.6,2.8
			c1,0,2.6-0.6,2.6-2.8C147.8,30.5,147.8,28.9,147.8,28.9L147.8,28.9z"/>
		<path class="st0" d="M73.4,21.1c2.4-0.1,7.4,1.5,7.4,7.2c0,1,0,7.8,0,7.8h-6.5c0,0,0-8.6,0-9.5c0-1.3-1.2-2.7-3-2.7
			s-3.1,1.4-3.1,2.7c0,0.6,0,9.5,0,9.5h-6.5V21.7h6.5c0,0,0,1.2,0,1.5C69.4,22,71.2,21.1,73.4,21.1L73.4,21.1z"/>
		<path class="st0" d="M126.4,21.1c2.4-0.1,7.4,1.5,7.4,7.2c0,1,0,7.8,0,7.8h-6.5c0,0,0-8.6,0-9.5c0-1.3-1.2-2.7-3-2.7
			s-3.1,1.4-3.1,2.7c0,0.6,0,9.5,0,9.5h-6.5V21.7h6.5c0,0,0,1.2,0,1.5C122.4,22,124.2,21.1,126.4,21.1L126.4,21.1z"/>
		<path class="st0" d="M100.4,26.8c0-1.3,0-2.1,0.4-2.8c0.5-0.9,1.5-1.3,2.3-1.3l0,0c0.9,0,1.8,0.4,2.3,1.3c0.4,0.7,0.4,1.6,0.4,2.8
			H100.4L100.4,26.8L100.4,26.8z M105.9,31.1c0,0,0,0.1,0,0.9c0,2.6-1.7,3.2-2.7,3.2s-2.7-0.6-2.7-3.2c0-0.8,0-3,0-3h12.3
			c0-4.5-4.3-8.2-9.6-8.2c-5.3,0-9.6,3.6-9.6,8.1s4.3,8.1,9.6,8.1c4.4,0,8.1-2.5,9.3-5.9H105.9L105.9,31.1z"/>
		<path class="st0" d="M175.9,19.6h-0.8v-4.9h1.9c1.2,0,1.7,0.4,1.7,1.4c0,0.9-0.6,1.3-1.3,1.4l1.4,2.2H178l-1.3-2.1h-0.9v2H175.9
			L175.9,19.6z M176.8,16.8c0.6,0,1.2,0,1.2-0.8c0-0.6-0.6-0.7-1.1-0.7h-1v1.5H176.8L176.8,16.8z"/>
		<path class="st0" d="M172.4,17.1c0-2.5,2-4.3,4.4-4.3c2.3,0,4.3,1.8,4.3,4.3s-2,4.3-4.3,4.3C174.4,21.4,172.4,19.6,172.4,17.1
			L172.4,17.1L172.4,17.1z M176.8,20.7c1.9,0,3.5-1.5,3.5-3.6c0-2-1.5-3.6-3.5-3.6s-3.5,1.5-3.5,3.6S174.8,20.7,176.8,20.7
			L176.8,20.7z"/>
	</g>
	<g>
		<path class="st0" d="M12.8,56.1h4l5.8,11.4l5.7-11.4h3.9v16.7H28V61.9l-5.4,10.9H21l-5.6-11v11h-2.6
			C12.8,72.8,12.8,56.1,12.8,56.1z"/>
		<path class="st0" d="M45.2,72.8h-3.8v-1c-0.2,0.2-0.4,0.3-0.6,0.5s-0.4,0.3-0.7,0.4s-0.5,0.2-0.8,0.3s-0.7,0-1.1,0
			c-0.6,0-1.1-0.1-1.6-0.2s-0.9-0.4-1.2-0.7s-0.6-0.6-0.7-1s-0.3-0.8-0.3-1.3s0.1-0.9,0.3-1.3s0.4-0.7,0.8-1s0.7-0.6,1.1-0.8
			s0.9-0.5,1.4-0.7s1-0.4,1.5-0.6s1-0.3,1.5-0.5l0.4-0.1v-1.3c0-0.4,0-0.7-0.1-1S41.1,62,41,61.8s-0.3-0.3-0.5-0.4s-0.4-0.1-0.7-0.1
			s-0.6,0-0.8,0.1s-0.4,0.2-0.5,0.3s-0.2,0.3-0.3,0.5s-0.1,0.4-0.1,0.6c0,0.2,0,0.5-0.1,0.7s-0.1,0.4-0.3,0.6s-0.3,0.3-0.5,0.4
			s-0.5,0.2-0.9,0.2c-0.3,0-0.5,0-0.7-0.1s-0.4-0.2-0.6-0.3s-0.3-0.3-0.4-0.5s-0.1-0.4-0.1-0.6c0-0.4,0.1-0.8,0.4-1.2s0.7-0.7,1.2-1
			s1.1-0.5,1.7-0.6s1.4-0.2,2.1-0.2c0.9,0,1.7,0.1,2.3,0.2s1.2,0.4,1.6,0.7s0.7,0.7,0.9,1.1s0.3,0.9,0.3,1.4v9.2H45.2z M41.4,66.2
			c-0.4,0.2-0.7,0.3-1.1,0.5s-0.7,0.4-1,0.7s-0.6,0.5-0.7,0.8s-0.3,0.6-0.3,0.9c0,0.2,0,0.5,0.1,0.7s0.1,0.4,0.3,0.6
			s0.2,0.3,0.4,0.4s0.3,0.1,0.4,0.1c0.3,0,0.6-0.1,0.9-0.3s0.7-0.4,1.1-0.7v-3.7H41.4z"/>
		<path class="st0" d="M51.4,72.8h-3.8V60.2h3.8v0.9c0.4-0.4,0.9-0.8,1.4-1s1-0.4,1.6-0.4c0.3,0,0.7,0,1,0.1s0.6,0.2,0.8,0.4
			s0.4,0.3,0.5,0.5s0.2,0.4,0.2,0.7c0,0.2,0,0.4-0.1,0.6s-0.2,0.3-0.4,0.5s-0.3,0.2-0.5,0.3s-0.4,0.1-0.6,0.1c-0.3,0-0.6,0-0.8-0.1
			s-0.4-0.2-0.5-0.3s-0.3-0.2-0.5-0.3S53.1,62,52.9,62c-0.1,0-0.3,0-0.4,0.1s-0.3,0.2-0.4,0.4s-0.2,0.3-0.4,0.6s-0.2,0.4-0.3,0.6
			C51.4,63.7,51.4,72.8,51.4,72.8z"/>
		<path class="st0" d="M58,56.2c0-0.3,0.1-0.5,0.2-0.7s0.3-0.4,0.4-0.6s0.4-0.3,0.7-0.4s0.5-0.1,0.8-0.1s0.5,0,0.8,0.1
			s0.5,0.2,0.7,0.4s0.3,0.4,0.4,0.6s0.2,0.5,0.2,0.7s-0.1,0.5-0.2,0.7s-0.3,0.4-0.4,0.6s-0.4,0.3-0.7,0.4S60.3,58,60.1,58
			s-0.5,0-0.8-0.1s-0.5-0.2-0.7-0.4s-0.3-0.4-0.4-0.6S58,56.4,58,56.2z M58.2,60.9l3.8-1.1v12.9h-3.8V60.9z"/>
		<path class="st0" d="M71.1,73c-1,0-1.9-0.2-2.8-0.5s-1.6-0.8-2.2-1.4s-1.1-1.3-1.4-2s-0.5-1.6-0.5-2.5c0-1,0.2-1.9,0.5-2.7
			s0.8-1.5,1.4-2.1s1.3-1.1,2.2-1.4s1.8-0.5,2.8-0.5s1.9,0.2,2.8,0.5s1.6,0.8,2.2,1.3s1.1,1.2,1.5,2c0.4,0.8,0.5,1.6,0.5,2.5
			s-0.2,1.8-0.5,2.6S76.7,70.4,76,71s-1.4,1.1-2.2,1.5S72.1,73,71.1,73z M71.5,71.5c0.4,0,0.7-0.1,1-0.3s0.5-0.5,0.8-0.9
			s0.4-0.8,0.5-1.3s0.2-1,0.2-1.6c0-0.8-0.1-1.6-0.2-2.3s-0.3-1.3-0.6-1.9s-0.6-1-1.1-1.3s-1-0.5-1.6-0.5c-0.3,0-0.6,0.1-0.9,0.3
			s-0.5,0.5-0.7,0.9s-0.4,0.8-0.5,1.3c-0.1,0.5-0.2,1-0.2,1.5c0,0.8,0.1,1.6,0.2,2.3s0.4,1.3,0.7,1.9s0.6,1,1,1.3S71,71.5,71.5,71.5
			z"/>
		<path class="st0" d="M96.8,56.1v1.4h-7.9V63h6.9v1.4h-6.9v8.3h-4.1V56.1H96.8z"/>
		<path class="st0" d="M109,72.8h-3.8v-1c-0.2,0.2-0.4,0.3-0.6,0.5s-0.4,0.3-0.7,0.4s-0.5,0.2-0.8,0.3s-0.7,0.1-1.1,0.1
			c-0.6,0-1.1-0.1-1.6-0.2s-0.9-0.4-1.2-0.7s-0.6-0.6-0.7-1s-0.3-0.8-0.3-1.3s0.1-0.9,0.3-1.3s0.4-0.7,0.8-1s0.7-0.6,1.1-0.8
			s0.9-0.5,1.4-0.7s1-0.4,1.5-0.6s1-0.3,1.5-0.5l0.4-0.1v-1.3c0-0.4,0-0.7-0.1-1s-0.2-0.5-0.3-0.7s-0.3-0.3-0.5-0.4
			s-0.4-0.1-0.7-0.1c-0.3,0-0.6,0-0.8,0.1s-0.4,0.2-0.5,0.3s-0.2,0.3-0.3,0.5s-0.1,0.4-0.1,0.6c0,0.2,0,0.5-0.1,0.7
			s-0.1,0.4-0.3,0.6s-0.3,0.3-0.5,0.4s-0.5,0.2-0.9,0.2c-0.3,0-0.5,0-0.7-0.1s-0.4-0.2-0.6-0.3s-0.3-0.3-0.4-0.5s-0.1-0.4-0.1-0.6
			c0-0.4,0.1-0.8,0.4-1.2s0.7-0.7,1.2-1s1.1-0.5,1.7-0.6s1.4-0.2,2.1-0.2c0.9,0,1.7,0.1,2.3,0.2s1.2,0.4,1.6,0.7s0.7,0.7,0.9,1.1
			s0.3,0.9,0.3,1.4v9.1H109z M105.1,66.2c-0.4,0.2-0.7,0.3-1.1,0.5s-0.7,0.4-1,0.7s-0.6,0.5-0.7,0.8s-0.3,0.6-0.3,0.9
			c0,0.2,0,0.5,0.1,0.7s0.1,0.4,0.3,0.6s0.2,0.3,0.4,0.4s0.3,0.1,0.4,0.1c0.3,0,0.6-0.1,0.9-0.3s0.7-0.4,1.1-0.7v-3.7H105.1z"/>
		<path class="st0" d="M119.6,64.1c0-0.3,0-0.6-0.1-0.9s-0.2-0.5-0.3-0.6s-0.3-0.3-0.4-0.4s-0.3-0.1-0.5-0.1s-0.4,0-0.6,0.1
			s-0.4,0.2-0.7,0.3s-0.5,0.3-0.7,0.4s-0.5,0.4-0.7,0.6v9.2h-3.8V60.2h3.8v1c0.6-0.4,1.2-0.7,1.9-0.9s1.3-0.3,2-0.3
			c0.5,0,1,0.1,1.5,0.3s0.9,0.5,1.2,0.8s0.6,0.8,0.8,1.2s0.3,1,0.3,1.5v9h-3.8L119.6,64.1L119.6,64.1z"/>
		<path class="st0" d="M137,73c-1,0-1.9-0.1-2.6-0.4s-1.4-0.6-1.9-1s-0.9-0.9-1.3-1.5s-0.5-1.2-0.6-1.9h2.8c0.1,0.4,0.2,0.8,0.4,1.2
			s0.4,0.7,0.7,0.9s0.6,0.5,1,0.6s0.9,0.2,1.4,0.2c0.4,0,0.7,0,1-0.1s0.6-0.2,0.9-0.4s0.5-0.4,0.7-0.7s0.2-0.6,0.2-1
			c0-0.5-0.1-0.9-0.4-1.3s-0.6-0.7-1-1s-0.9-0.6-1.4-0.9s-1.1-0.5-1.6-0.8s-1.1-0.6-1.6-0.9s-1-0.6-1.4-1s-0.8-0.8-1-1.3
			s-0.4-1-0.4-1.6c0-0.7,0.1-1.3,0.4-1.8s0.7-1.1,1.3-1.5s1.2-0.7,2-1s1.7-0.4,2.7-0.4c0.8,0,1.6,0.1,2.3,0.4s1.3,0.6,1.8,1
			s1,0.9,1.3,1.4s0.6,1.1,0.8,1.8h-2.6c-0.1-0.4-0.3-0.8-0.5-1.1s-0.4-0.7-0.7-0.9s-0.6-0.5-1-0.7s-0.9-0.2-1.5-0.2
			c-0.5,0-1,0.1-1.3,0.2s-0.7,0.3-0.9,0.5s-0.4,0.5-0.5,0.7s-0.1,0.5-0.1,0.8c0,0.4,0.1,0.8,0.4,1.2s0.6,0.7,1,1s0.9,0.6,1.5,0.9
			s1.1,0.6,1.7,0.9s1.1,0.6,1.7,0.9c0.6,0.3,1,0.7,1.5,1s0.8,0.8,1,1.3s0.4,1,0.4,1.6c0,0.7-0.1,1.3-0.4,1.9s-0.7,1.1-1.2,1.5
			s-1.2,0.8-2.1,1S138,73,137,73z"/>
		<path class="st0" d="M153.6,64.1c0-0.6-0.1-1.1-0.3-1.5s-0.5-0.5-0.8-0.5c-0.2,0-0.3,0-0.6,0.1s-0.5,0.2-0.7,0.3s-0.5,0.3-0.8,0.4
			s-0.5,0.3-0.7,0.5v9.2h-3.9V55.1l3.9-1.1v7.1c0.6-0.4,1.2-0.7,2-1s1.4-0.3,2.1-0.3c0.5,0,1,0.1,1.4,0.3s0.8,0.5,1.2,0.8
			s0.6,0.8,0.8,1.2s0.3,1,0.3,1.5v9h-3.8L153.6,64.1L153.6,64.1z"/>
		<path class="st0" d="M166.2,73c-1,0-1.9-0.2-2.8-0.5s-1.6-0.8-2.2-1.4s-1.1-1.3-1.4-2s-0.5-1.6-0.5-2.5c0-1,0.2-1.9,0.5-2.7
			s0.8-1.5,1.4-2.1s1.3-1.1,2.2-1.4s1.8-0.5,2.8-0.5s1.9,0.2,2.8,0.5s1.6,0.8,2.2,1.3s1.1,1.2,1.5,2c0.4,0.8,0.5,1.6,0.5,2.5
			s-0.2,1.8-0.5,2.6s-0.8,1.5-1.5,2.2s-1.4,1.1-2.2,1.5S167.2,73,166.2,73z M166.6,71.5c0.4,0,0.7-0.1,1-0.3s0.5-0.5,0.8-0.9
			s0.4-0.8,0.5-1.3s0.2-1,0.2-1.6c0-0.8-0.1-1.6-0.2-2.3s-0.3-1.3-0.6-1.9s-0.6-1-1.1-1.3s-1-0.5-1.6-0.5c-0.3,0-0.6,0.1-0.9,0.3
			s-0.5,0.5-0.7,0.9s-0.4,0.8-0.5,1.3c-0.1,0.5-0.2,1-0.2,1.5c0,0.8,0.1,1.6,0.2,2.3s0.4,1.3,0.7,1.9s0.6,1,1,1.3
			S166.1,71.5,166.6,71.5z"/>
		<path class="st0" d="M174.5,60.2h3.8v1c0.4-0.4,0.9-0.7,1.5-0.9s1.2-0.4,2-0.4s1.5,0.2,2.2,0.5s1.2,0.7,1.7,1.3s0.8,1.2,1.1,1.9
			c0.3,0.7,0.4,1.5,0.4,2.3c0,1-0.2,2-0.5,2.9s-0.7,1.6-1.3,2.3s-1.2,1.1-2,1.5s-1.7,0.5-2.7,0.5c-0.5,0-0.9,0-1.3-0.1
			s-0.7-0.1-1.1-0.3v5h-3.8L174.5,60.2L174.5,60.2z M178.4,69.2c0,0.3,0.1,0.6,0.2,0.9s0.3,0.5,0.5,0.7s0.5,0.4,0.8,0.5
			s0.6,0.2,1,0.2c0.3,0,0.6-0.1,0.9-0.3s0.5-0.5,0.8-0.9s0.4-0.8,0.5-1.4s0.2-1.1,0.2-1.8c0-0.8-0.1-1.5-0.2-2.1s-0.3-1.1-0.5-1.5
			s-0.4-0.7-0.7-0.9s-0.6-0.3-0.9-0.3c-0.2,0-0.5,0-0.7,0.1s-0.4,0.2-0.7,0.3s-0.4,0.3-0.6,0.5s-0.4,0.4-0.5,0.6v5.4H178.4z"/>
	</g>
</g>
</svg>
